<svg width="567" height="100" viewBox="0 0 567 100" fill="none" xmlns="http://www.w3.org/2000/svg">
<path d="M58.3332 79.1667C74.0457 79.1667 81.9041 79.1667 86.7832 74.2833C91.6666 69.4042 91.6666 61.5458 91.6666 45.8333C91.6666 30.1208 91.6666 22.2625 86.7832 17.3833C81.9041 12.5 74.0457 12.5 58.3332 12.5H41.6666C25.9541 12.5 18.0958 12.5 13.2166 17.3833C8.33325 22.2625 8.33325 30.1208 8.33325 45.8333C8.33325 61.5458 8.33325 69.4042 13.2166 74.2833C15.9374 77.0083 19.5833 78.2125 24.9999 78.7417" fill="white"/>
<path d="M58.3332 79.1667C74.0457 79.1667 81.9041 79.1667 86.7832 74.2833C91.6666 69.4042 91.6666 61.5458 91.6666 45.8333C91.6666 30.1208 91.6666 22.2625 86.7832 17.3833C81.9041 12.5 74.0457 12.5 58.3332 12.5H41.6666C25.9541 12.5 18.0958 12.5 13.2166 17.3833C8.33325 22.2625 8.33325 30.1208 8.33325 45.8333C8.33325 61.5458 8.33325 69.4042 13.2166 74.2833C15.9374 77.0083 19.5833 78.2125 24.9999 78.7417" stroke="white" stroke-linecap="round" stroke-linejoin="round"/>
<path d="M62.9427 57.0573L58.4094 52.524C59.8706 50.6631 60.6654 48.366 60.6667 46H58C57.9987 47.6591 57.4769 49.2759 56.508 50.6227L54.576 48.6893C55.0675 47.8781 55.3292 46.9485 55.3334 46V38C55.3334 35.044 52.9534 32.6387 50.028 32.6387C49.9347 32.6387 49.8414 32.6507 49.7494 32.672C48.3804 32.7384 47.0893 33.3285 46.1432 34.3202C45.1971 35.3119 44.6685 36.6294 44.6667 38V38.7813L38.9427 33.0573L37.0574 34.9427L61.0574 58.9427L62.9427 57.0573ZM42 46H39.3334C39.3334 51.4293 43.4134 55.9147 48.6667 56.5747V59.3333H51.3334V56.5747C52.3653 56.4431 53.3721 56.16 54.3214 55.7347L52.256 53.6707C51.5237 53.8879 50.7639 53.9988 50 54C45.588 54 42 50.412 42 46Z" fill="black"/>
<path d="M44.676 46.0894C44.7 47.4702 45.2592 48.7878 46.2358 49.7643C47.2123 50.7408 48.5299 51.3 49.9107 51.324L44.676 46.0894Z" fill="black"/>
<path d="M58.3334 79.1666C53.1834 79.1666 47.5084 81.25 42.3292 83.9375C34.0042 88.2583 29.8417 90.4208 27.7917 89.0416C25.7417 87.6666 26.1292 83.3958 26.9084 74.8583L27.0834 72.9166" fill="white"/>
<path d="M58.3334 79.1666C53.1834 79.1666 47.5084 81.25 42.3292 83.9375C34.0042 88.2583 29.8417 90.4208 27.7917 89.0416C25.7417 87.6666 26.1292 83.3958 26.9084 74.8583L27.0834 72.9166" stroke="white" stroke-linecap="round" stroke-linejoin="round"/>
<path d="M163.178 19.4375C169.365 19.4375 172.459 22.1562 172.459 27.5938V74.5625C172.459 80 169.365 82.7188 163.178 82.7188C156.99 82.7188 153.896 80 153.896 74.5625V58.4375H141.24V74.5625C141.24 80 138.146 82.7188 131.959 82.7188C125.771 82.7188 122.678 80 122.678 74.5625V27.5938C122.678 22.1562 125.771 19.4375 131.959 19.4375C138.146 19.4375 141.24 22.1562 141.24 27.5938V43.4375H153.896V27.5938C153.896 22.1562 156.99 19.4375 163.178 19.4375ZM230.381 65.5625C230.381 71.5312 227.834 75.9688 222.741 78.875C217.678 81.75 211.913 83.1875 205.444 83.1875C198.975 83.1875 193.194 81.75 188.1 78.875C183.038 75.9688 180.506 71.5312 180.506 65.5625V27.5938C180.506 22.1562 183.6 19.4375 189.788 19.4375C195.975 19.4375 199.069 22.1562 199.069 27.5938V62.8438C199.069 66.4062 201.194 68.1875 205.444 68.1875C209.694 68.1875 211.819 66.4062 211.819 62.8438V27.5938C211.819 22.1562 214.913 19.4375 221.1 19.4375C227.288 19.4375 230.381 22.1562 230.381 27.5938V65.5625ZM263.694 82.9062C257.694 82.9062 251.866 81.9531 246.21 80.0469C240.554 78.1406 237.726 74.7344 237.726 69.8281C237.726 64.9219 239.944 62.4688 244.382 62.4688C245.038 62.4688 247.648 63.3281 252.21 65.0469C256.773 66.7656 260.71 67.625 264.023 67.625C267.366 67.625 269.038 66.2188 269.038 63.4062C269.038 61.5625 267.898 60.0312 265.616 58.8125C263.335 57.5625 260.148 56.2656 256.054 54.9219C251.991 53.5781 249.444 52.5625 248.413 51.875C243.663 48.7188 241.288 44.125 241.288 38.0938C241.288 32.0312 243.273 27.125 247.241 23.375C251.116 19.6875 255.694 17.8438 260.976 17.8438C266.257 17.8438 270.851 18.4219 274.757 19.5781C282.069 21.8906 285.007 25.3125 283.569 29.8438C282.163 34.3438 279.569 36.4375 275.788 36.125C275.444 36.125 273.569 35.4844 270.163 34.2031C266.757 32.9219 263.726 32.2812 261.069 32.2812C258.444 32.2812 257.132 33.5781 257.132 36.1719C257.132 37.8281 258.241 39.2656 260.46 40.4844C262.71 41.6719 265.866 42.9844 269.929 44.4219C273.991 45.8281 276.569 46.9062 277.663 47.6562C282.476 50.9062 284.882 55.75 284.882 62.1875C284.882 68.5938 282.819 73.6719 278.694 77.4219C274.726 81.0781 269.726 82.9062 263.694 82.9062ZM332.726 19.4375C338.914 19.4375 342.008 22.1562 342.008 27.5938V74.5625C342.008 80 338.914 82.7188 332.726 82.7188C326.539 82.7188 323.445 80 323.445 74.5625V58.4375H310.789V74.5625C310.789 80 307.695 82.7188 301.508 82.7188C295.32 82.7188 292.226 80 292.226 74.5625V27.5938C292.226 22.1562 295.32 19.4375 301.508 19.4375C307.695 19.4375 310.789 22.1562 310.789 27.5938V43.4375H323.445V27.5938C323.445 22.1562 326.539 19.4375 332.726 19.4375ZM384.789 34.3438V74.6562C384.789 80.0938 381.696 82.8125 375.508 82.8125C369.321 82.8125 366.227 80.0938 366.227 74.6562V34.3438H356.852C351.852 34.3438 349.352 31.8594 349.352 26.8906C349.352 21.9219 351.852 19.4375 356.852 19.4375H394.258C399.258 19.4375 401.758 21.9219 401.758 26.8906C401.758 31.8594 399.258 34.3438 394.258 34.3438H384.789ZM430.946 56.5625L426.915 45.5938L422.884 56.5625H430.946ZM417.352 71.5625L415.571 76.3438C413.977 80.5938 411.352 82.7188 407.696 82.7188C404.071 82.7188 401.462 81.6094 399.868 79.3906C398.306 77.1406 397.524 75.125 397.524 73.3438C397.524 71.5625 397.915 69.8125 398.696 68.0938L418.009 25.8125C419.946 21.5625 422.899 19.4375 426.868 19.4375C430.837 19.4375 433.79 21.5625 435.727 25.8125L455.134 68.0938C455.946 69.8438 456.352 71.6094 456.352 73.3906C456.352 75.1719 455.587 77.1719 454.056 79.3906C452.524 81.6094 449.899 82.7188 446.181 82.7188C442.493 82.7188 439.852 80.5938 438.259 76.3438L436.477 71.5625H417.352ZM496.838 82.7188H473.025C466.838 82.7188 463.744 80 463.744 74.5625V27.5938C463.744 22.1562 466.838 19.4375 473.025 19.4375C479.213 19.4375 482.306 22.1562 482.306 27.5938V67.8125H496.838C500.713 67.8125 502.65 70.2969 502.65 75.2656C502.65 80.2344 500.713 82.7188 496.838 82.7188ZM546.416 50.9375L561.698 67.8125C563.885 70.25 564.979 72.4844 564.979 74.5156C564.979 76.5469 564.01 78.4219 562.073 80.1406C560.166 81.8594 558.104 82.7188 555.885 82.7188C553.698 82.7188 551.416 81.4375 549.041 78.875L529.26 57.4062V74.5625C529.26 80 526.166 82.7188 519.979 82.7188C513.791 82.7188 510.698 80 510.698 74.5625V27.5938C510.698 22.1562 513.791 19.4375 519.979 19.4375C526.166 19.4375 529.26 22.1562 529.26 27.5938V44.5625L549.041 23.1875C551.448 20.5938 553.729 19.2969 555.885 19.2969C558.073 19.2969 560.119 20.1562 562.026 21.875C563.963 23.5625 564.932 25.4375 564.932 27.5C564.932 29.5625 563.854 31.7812 561.698 34.1562L546.416 50.9375Z" fill="white"/>
</svg>
